Coordinates
version=1
nRows=13
nColumns=38
inDegrees=no

Units are S.I. units (second, meters, Newtons, ...)
If the header above contains a line with 'inDegrees', this indicates whether rotational values are in degrees (yes) or radians (no).

endheader
time	pelvis_tilt	pelvis_list	pelvis_rotation	pelvis_tx	pelvis_ty	pelvis_tz	hip_flexion_r	hip_adduction_r	hip_rotation_r	knee_angle_r	ankle_angle_r	subtalar_angle_r	mtp_angle_r	hip_flexion_l	hip_adduction_l	hip_rotation_l	knee_angle_l	ankle_angle_l	subtalar_angle_l	mtp_angle_l	lumbar_extension	lumbar_bending	lumbar_rotation	arm_flex_r	arm_add_r	arm_rot_r	elbow_flex_r	pro_sup_r	wrist_flex_r	wrist_dev_r	arm_flex_l	arm_add_l	arm_rot_l	elbow_flex_l	pro_sup_l	wrist_flex_l	wrist_dev_l
0	0.2732	1.35422	1.48481	0.651327	0.641854	0.984838	0.80069	-0.0200172	-0.0465101	0.67784	0.148637	0	0	0.0393159	-0.154342	-0.20697	0.660668	0.158477	0	0	0.218507	0.131782	-0.239609	-0.297059	-0.272639	0.730044	0.334818	1.02264	0	0	-0.0498641	-0.460816	0.371999	0.768243	1.40348	0	0
0.01	0.303037	1.35129	1.45531	0.651946	0.655301	0.984767	0.804434	-0.0127059	-0.0495721	0.693142	0.131653	0	0	0.0425133	-0.163644	-0.193171	0.681488	0.141659	0	0	0.222503	0.14427	-0.24219	-0.294194	-0.270872	0.71768	0.32387	1.03731	0	0	-0.0540334	-0.45457	0.374829	0.757541	1.40779	0	0
0.02	0.340407	1.35174	1.41585	0.652709	0.669734	0.985441	0.803338	-0.0032027	-0.060728	0.713183	0.110477	0	0	0.0416557	-0.17533	-0.185899	0.703621	0.121127	0	0	0.223575	0.15845	-0.243023	-0.291196	-0.269444	0.704981	0.312202	1.05193	0	0	-0.0596041	-0.44713	0.379573	0.744924	1.41179	0	0
0.03	0.374846	1.35376	1.37723	0.653636	0.684296	0.986543	0.800134	0.00653663	-0.0717323	0.734769	0.0906035	0	0	0.0414128	-0.185421	-0.179485	0.729598	0.095712	0	0	0.222259	0.171737	-0.241013	-0.287243	-0.267075	0.688027	0.299533	1.07062	0	0	-0.0646385	-0.439226	0.386264	0.730898	1.41516	0	0
0.04	0.401594	1.35614	1.34478	0.654589	0.698683	0.987824	0.795525	0.0155705	-0.0777236	0.754016	0.0791833	0	0	0.0440552	-0.191344	-0.169069	0.759439	0.0735067	0	0	0.219491	0.183117	-0.237315	-0.282265	-0.266477	0.673813	0.290368	1.08637	0	0	-0.0707378	-0.430987	0.391603	0.71771	1.41692	0	0
0.05	0.417658	1.35758	1.32194	0.65566	0.712845	0.989085	0.790764	0.0239144	-0.0789614	0.769568	0.0695595	0	0	0.0519147	-0.193888	-0.157312	0.792729	0.0395103	0	0	0.219845	0.191284	-0.22943	-0.272606	-0.276364	0.751739	0.288494	1.00169	0	0	-0.0710992	-0.42828	0.423906	0.70278	1.39213	0	0
0.06	0.428644	1.35785	1.30464	0.656933	0.726806	0.990257	0.785195	0.0323552	-0.0794809	0.78152	0.0633237	0	0	0.0651523	-0.194636	-0.142306	0.829773	0.00674589	0	0	0.219255	0.197969	-0.222301	-0.267933	-0.27525	0.735959	0.282196	1.01927	0	0	-0.0765721	-0.422786	0.438679	0.691783	1.38167	0	0
0.07	0.438337	1.35743	1.28969	0.658328	0.740516	0.991368	0.778485	0.0402061	-0.0839113	0.79061	0.0599407	0	0	0.0828496	-0.194243	-0.123952	0.870076	-0.0230678	0	0	0.216829	0.203511	-0.221659	-0.256043	-0.278806	0.753419	0.279556	1.01062	0	0	-0.0940451	-0.411314	0.414464	0.686548	1.40415	0	0
0.08	0.449542	1.35738	1.27447	0.659736	0.753949	0.992466	0.770365	0.0466079	-0.0945065	0.798456	0.0591509	0	0	0.103314	-0.193493	-0.103972	0.913199	-0.0528811	0	0	0.214809	0.208234	-0.216075	-0.246854	-0.282551	0.772175	0.280515	0.992748	0	0	-0.100933	-0.4072	0.427574	0.679295	1.39537	0	0
0.09	0.461563	1.35722	1.25935	0.661086	0.767	0.993517	0.760869	0.0530659	-0.105714	0.803876	0.0617232	0	0	0.126506	-0.192483	-0.0829294	0.958884	-0.0823614	0	0	0.212553	0.213028	-0.202123	-0.25074	-0.272938	0.667217	0.279	1.08744	0	0	-0.0937772	-0.4095	0.481107	0.669002	1.35583	0	0
0.1	0.47357	1.35684	1.24463	0.662327	0.779645	0.994598	0.749945	0.0605386	-0.11293	0.806461	0.0677535	0	0	0.152777	-0.190217	-0.0599965	1.00756	-0.108345	0	0	0.21224	0.216838	-0.193805	-0.235291	-0.297168	0.814848	0.302422	0.912111	0	0	-0.0897757	-0.411674	0.533346	0.659859	1.31461	0	0
0.11	0.486275	1.3569	1.22938	0.663446	0.791938	0.995832	0.73765	0.0684833	-0.115885	0.80813	0.0752403	0	0	0.180907	-0.186893	-0.0364329	1.05753	-0.135794	0	0	0.207033	0.221112	-0.185018	-0.229673	-0.301317	0.786594	0.314501	0.924455	0	0	-0.0893414	-0.407794	0.558403	0.652421	1.30483	0	0
0.12	0.498244	1.35798	1.2147	0.664478	0.804013	0.997276	0.723267	0.076413	-0.114105	0.809119	0.084575	0	0	0.209616	-0.182664	-0.0144972	1.10666	-0.167122	0	0	0.200534	0.224713	-0.175427	-0.22473	-0.306219	0.752201	0.330198	0.93918	0	0	-0.0875661	-0.403024	0.584156	0.643496	1.2995	0	0
